<svg width="97" height="33" viewBox="0 0 97 33" fill="none" xmlns="http://www.w3.org/2000/svg">
<path d="M60.2216 26.4053H52.8716L45.2826 10.59H45.1631C45.3364 13.0728 45.4261 14.9705 45.4261 16.2798V26.4053H40.4663V3.95605H47.7804L55.3336 19.5515H55.4172C55.2888 17.295 55.226 15.4781 55.226 14.1073V3.95605H60.2216V26.4053Z" fill="white"/>
<path d="M78.621 11.0943C78.621 13.603 77.8784 15.5427 76.3996 16.9135C74.9175 18.2778 72.822 18.9567 70.1098 18.9567H68.405V26.4053H62.3477V3.95605H70.1098C72.9318 3.95605 75.0564 4.57677 76.477 5.8182C77.9042 7.05317 78.621 8.81186 78.621 11.0943ZM68.405 14.0168H69.5028C70.4133 14.0168 71.1366 13.7647 71.6725 13.2539C72.215 12.7366 72.4862 12.0254 72.4862 11.1201C72.4862 9.61362 71.6467 8.85712 69.9677 8.85712H68.405V14.0168Z" fill="white"/>
<path d="M96 19.5904C96 20.9805 95.6297 22.2155 94.8957 23.3017C94.1583 24.3815 93.0943 25.2221 91.7038 25.8234C90.3199 26.4182 88.6937 26.7157 86.8284 26.7157C85.2728 26.7157 83.9665 26.6122 82.9092 26.4053C81.8587 26.1919 80.7611 25.8202 79.623 25.2932V19.8878C80.8251 20.4827 82.0776 20.9482 83.3806 21.2844C84.6803 21.6206 85.8755 21.7887 86.9631 21.7887C87.8957 21.7887 88.5826 21.6336 89.0237 21.3232C89.4614 21.0064 89.6836 20.599 89.6836 20.1076C89.6836 19.7973 89.5927 19.5322 89.4142 19.3059C89.2425 19.0731 88.9597 18.8403 88.5657 18.6076C88.1785 18.3683 87.1415 17.8834 85.4547 17.1592C83.9361 16.4965 82.7947 15.8531 82.0338 15.2324C81.2695 14.6053 80.7038 13.8843 80.3368 13.0729C79.9665 12.2646 79.7847 11.3077 79.7847 10.2021C79.7847 8.133 80.5658 6.52302 82.1281 5.36564C83.6971 4.2115 85.852 3.63281 88.5927 3.63281C91.0169 3.63281 93.4849 4.17271 96 5.24926L94.0607 9.93049C91.8789 8.96709 89.9933 8.48215 88.4041 8.48215C87.5759 8.48215 86.9765 8.62117 86.5994 8.89596C86.2291 9.17399 86.0472 9.51668 86.0472 9.93049C86.0472 10.3702 86.2829 10.7678 86.761 11.1202C87.2358 11.4661 88.5253 12.0965 90.6263 13.0082C92.6364 13.8811 94.0337 14.8154 94.8149 15.8144C95.6027 16.8166 96 18.0741 96 19.5904Z" fill="white"/>
<path d="M12.9281 1.10996C13.0067 1.1852 13.0835 1.26269 13.164 1.33455C14.4688 2.48776 15.5065 3.90966 16.1976 5.66544C16.3133 5.95976 16.4602 6.03271 16.7121 6.03032C18.2162 6.01827 19.7204 6.01409 21.2245 6.02676C22.7589 6.04053 23.8798 6.92531 24.4743 8.55642C25.5846 11.6019 23.6582 14.3804 21.5574 14.4647C19.8203 14.5353 18.0793 14.4879 16.3403 14.5035C15.0834 14.5142 13.8227 14.479 12.5705 14.5785C10.7766 14.72 9.24915 15.6466 7.98997 17.1518C6.11446 19.391 5.34639 22.1116 5.77098 25.2225C6.16707 28.1189 7.52333 30.2901 9.63803 31.7945C9.70435 31.8428 9.78108 31.8708 9.8834 31.9236C9.89186 31.7618 9.90318 31.6427 9.90314 31.5213C9.90414 29.2169 9.89473 26.9135 9.90521 24.6091C9.90873 23.9023 9.87719 23.1709 10.0152 22.4955C10.3537 20.828 11.7058 19.5553 13.154 19.522C15.1156 19.476 17.0782 19.5165 19.0407 19.4884C20.3185 19.4709 21.6105 19.6387 22.8701 19.2796C25.8089 18.441 27.8067 16.2983 28.6597 12.8732C29.8116 8.2569 27.8794 3.60071 24.1648 1.70162C23.3804 1.30093 22.5496 1.1216 21.7028 1.04116C21.4347 1.01547 21.1629 1.02348 20.893 1.02363C18.2484 1.02394 15.6048 1.02649 12.9612 1.02792C12.9499 1.0549 12.9395 1.08187 12.9281 1.10996Z" fill="#60DAFA"/>
<path d="M11.3355 12.9289C12.1738 12.8825 12.9438 12.8293 13.7139 12.7998C14.2424 12.7794 14.7709 12.7926 15.3004 12.7935C15.4557 12.7946 15.5789 12.7721 15.574 12.5305C15.541 11.0418 15.7032 9.53609 15.37 8.07108C14.5963 4.66133 12.7841 2.37222 9.94114 1.38128C5.97742 0.000909036 1.88306 2.53178 0.456083 7.13232C0.144019 8.13805 0.00815268 9.18416 0.00774382 10.2504C0.00673612 17.6357 0.0123587 25.021 0.0170339 32.4063C0.0173283 32.9895 0.0192227 32.9895 0.489974 32.9893C1.60576 32.9899 2.72248 32.9738 3.83828 32.998C4.18022 33.0046 4.26919 32.8821 4.26899 32.481C4.25483 25.0811 4.25299 17.6812 4.2521 10.2824C4.25118 8.46893 5.13698 6.94948 6.5546 6.30733C8.82732 5.27719 11.3071 7.27165 11.3341 10.157C11.3422 11.0761 11.3351 11.9952 11.3355 12.9289Z" fill="#60DAFA"/>
</svg>
