<svg width="29" height="32" viewBox="0 0 29 32" fill="none" xmlns="http://www.w3.org/2000/svg">
<path d="M12.9281 0.109964C13.0067 0.185201 13.0835 0.262687 13.164 0.334552C14.4688 1.48776 15.5065 2.90966 16.1976 4.66544C16.3133 4.95976 16.4602 5.03271 16.7121 5.03032C18.2162 5.01827 19.7204 5.01409 21.2245 5.02676C22.7589 5.04053 23.8798 5.92531 24.4743 7.55642C25.5846 10.6019 23.6582 13.3804 21.5574 13.4647C19.8203 13.5353 18.0793 13.4879 16.3403 13.5035C15.0834 13.5142 13.8227 13.479 12.5705 13.5785C10.7766 13.72 9.24915 14.6466 7.98997 16.1518C6.11446 18.391 5.34639 21.1116 5.77098 24.2225C6.16707 27.1189 7.52333 29.2901 9.63803 30.7945C9.70435 30.8428 9.78108 30.8708 9.8834 30.9236C9.89186 30.7618 9.90318 30.6427 9.90314 30.5213C9.90414 28.2169 9.89473 25.9135 9.90521 23.6091C9.90873 22.9023 9.87719 22.1709 10.0152 21.4955C10.3537 19.828 11.7058 18.5553 13.154 18.522C15.1156 18.476 17.0782 18.5165 19.0407 18.4884C20.3185 18.4709 21.6105 18.6387 22.8701 18.2796C25.8089 17.441 27.8067 15.2983 28.6597 11.8732C29.8116 7.2569 27.8794 2.60071 24.1648 0.701619C23.3804 0.300925 22.5496 0.121602 21.7028 0.0411636C21.4347 0.0154664 21.1629 0.0234789 20.893 0.0236252C18.2484 0.023935 15.6048 0.0264914 12.9612 0.0279242C12.9499 0.0548963 12.9395 0.081868 12.9281 0.109964Z" fill="#60DAFA"/>
<path d="M11.3355 11.9289C12.1738 11.8825 12.9438 11.8293 13.7139 11.7998C14.2424 11.7794 14.7709 11.7926 15.3004 11.7935C15.4557 11.7946 15.5789 11.7721 15.574 11.5305C15.541 10.0418 15.7032 8.53609 15.37 7.07108C14.5963 3.66133 12.7841 1.37222 9.94114 0.381275C5.97742 -0.999091 1.88306 1.53178 0.456083 6.13232C0.144019 7.13805 0.00815268 8.18416 0.00774382 9.25044C0.00673612 16.6357 0.0123587 24.021 0.0170339 31.4063C0.0173283 31.9895 0.0192227 31.9895 0.489974 31.9893C1.60576 31.9899 2.72248 31.9738 3.83828 31.998C4.18022 32.0046 4.26919 31.8821 4.26899 31.481C4.25483 24.0811 4.25299 16.6812 4.2521 9.28239C4.25118 7.46893 5.13698 5.94948 6.5546 5.30733C8.82732 4.27719 11.3071 6.27165 11.3341 9.15699C11.3422 10.0761 11.3351 10.9952 11.3355 11.9289Z" fill="#60DAFA"/>
</svg>
