<svg width="32" height="32" viewBox="0 0 32 32" fill="none" xmlns="http://www.w3.org/2000/svg"><path d="M16.212 15.493h-.107a.72.72 0 0 0-.24 0c-3.867-.12-6.787-3.16-6.787-6.907a6.792 6.792 0 0 1 2.014-4.88 6.88 6.88 0 0 1 4.893-2.04c3.813 0 6.92 3.107 6.92 6.92a6.875 6.875 0 0 1-6.653 6.907h-.04Zm-.227-11.826c-1.32 0-2.547.52-3.48 1.44a4.904 4.904 0 0 0-1.427 3.466c0 2.667 2.08 4.827 4.734 4.907.08-.014.253-.014.426 0a4.881 4.881 0 0 0 4.667-4.907c0-2.693-2.213-4.907-4.92-4.907Zm.005 26.413c-2.72 0-5.294-.707-7.24-2.013-1.854-1.24-2.867-2.934-2.867-4.76 0-1.827 1.026-3.507 2.866-4.734 3.987-2.666 10.467-2.666 14.454 0 .453.307.587.934.28 1.387a.995.995 0 0 1-1.387.28c-3.32-2.213-8.92-2.213-12.24 0-1.28.853-1.973 1.933-1.973 3.067 0 1.133.693 2.24 1.973 3.093 1.614 1.08 3.787 1.667 6.12 1.667a1.007 1.007 0 0 1 .013 2.013Z" fill="#1D588B"/><path d="M25.182 31.528a.294.294 0 0 1-.291-.292v-4.278c0-.16.132-.291.291-.291.16 0 .292.132.292.291v4.278c0 .16-.132.292-.292.292Zm0-6.334a.294.294 0 0 1-.291-.291v-1.945c0-.16.132-.291.291-.291.16 0 .292.132.292.291v1.945c0 .16-.132.291-.292.291Zm-2.726 6.14c-.16 0-.292-.105-.292-.231v-1.539c0-.126.132-.23.292-.23.16 0 .291.104.291.23v1.539c0 .126-.132.23-.291.23Zm0-3.334c-.16 0-.292-.145-.292-.32v-4.694c0-.174.132-.32.292-.32.16 0 .291.146.291.32v4.694c0 .175-.132.32-.291.32Zm-2.719 3.028a.294.294 0 0 1-.292-.292v-4.278c0-.16.133-.291.292-.291.16 0 .292.132.292.291v4.278c0 .16-.133.292-.292.292Zm0-5.834a.294.294 0 0 1-.292-.291v-1.945c0-.16.133-.291.292-.291.16 0 .292.132.292.291v1.945c0 .16-.133.291-.292.291Z" fill="#1D588B" stroke="#1D588B" stroke-width=".4"/><path d="M20.511 26.75h-1.555a.294.294 0 0 1-.292-.292c0-.16.132-.291.292-.291h1.555c.16 0 .292.132.292.291 0 .16-.132.292-.292.292Zm5.446.5H24.4a.294.294 0 0 1-.292-.292c0-.16.133-.291.292-.291h1.556c.159 0 .291.132.291.291 0 .16-.132.292-.291.292Zm-2.719 1.067h-1.556a.294.294 0 0 1-.291-.292c0-.16.132-.292.291-.292h1.556c.16 0 .291.133.291.292 0 .16-.132.292-.291.292Z" fill="#1D588B" stroke="#1D588B" stroke-width=".4"/></svg>