<svg height="32" viewBox="0 0 1.5 1.5" width="32" xmlns="http://www.w3.org/2000/svg"><g id="Layer_2" data-name="Layer 2"><path fill="#26de81" height="21.5" rx="4.75" width="21.5" x="1.25" y="1.25" d="M0.375 0.078H1.125A0.297 0.297 0 0 1 1.422 0.375V1.125A0.297 0.297 0 0 1 1.125 1.422H0.375A0.297 0.297 0 0 1 0.078 1.125V0.375A0.297 0.297 0 0 1 0.375 0.078z"/><g fill="#fff"><path d="m0.75 1.063a0.063 0.063 0 0 1 -0.063 -0.063v-0.5a0.063 0.063 0 0 1 0.125 0v0.5a0.063 0.063 0 0 1 -0.063 0.063z"/><path d="m0.5 0.813a0.063 0.063 0 0 1 0 -0.125h0.5a0.063 0.063 0 0 1 0 0.125z"/></g></g></svg>