<svg clip-rule="evenodd" fill-rule="evenodd" height="32" image-rendering="optimizeQuality" shape-rendering="geometricPrecision" text-rendering="geometricPrecision" viewBox="0 0 10.837 10.837" width="32" xmlns="http://www.w3.org/2000/svg"><g id="Layer_x0020_1"><path cx="86.699" cy="86.699" fill="#db4437" r="84.667" d="M10.71 5.419A5.292 5.292 0 0 1 5.419 10.71A5.292 5.292 0 0 1 0.127 5.419A5.292 5.292 0 0 1 10.71 5.419z"/><g id="_409686696" fill="#fff"><path id="_409687776" d="m7.676 4.247 -0.412 4.147c-0.023 0.236 -0.203 0.426 -0.441 0.426h-2.809c-0.238 0 -0.418 -0.19 -0.441 -0.426l-0.412 -4.147zm-3.235 0.819c-0.007 -0.121 0.087 -0.226 0.208 -0.232 0.121 -0.007 0.226 0.087 0.232 0.208 0.047 0.869 0.095 1.739 0.142 2.608 0.005 0.094 -0.046 0.177 -0.132 0.214 -0.086 0.037 -0.182 0.018 -0.247 -0.05 -0.035 -0.037 -0.058 -0.086 -0.061 -0.14 -0.047 -0.87 -0.095 -1.739 -0.142 -2.609zm1.747 -0.232c0.121 0.007 0.215 0.112 0.208 0.232 -0.047 0.869 -0.095 1.739 -0.142 2.608 -0.005 0.094 -0.065 0.171 -0.155 0.199 -0.09 0.028 -0.183 -0.002 -0.24 -0.076 -0.031 -0.04 -0.049 -0.092 -0.046 -0.146 0.047 -0.87 0.095 -1.739 0.142 -2.609 0.007 -0.121 0.111 -0.215 0.232 -0.208z"/><path id="_409687656" height="12.415" rx="6.207" width="86.35" x="43.524" y="53.122" d="M3.108 3.32H7.729A0.388 0.388 0 0 1 8.117 3.708V3.708A0.388 0.388 0 0 1 7.729 4.096H3.108A0.388 0.388 0 0 1 2.72 3.708V3.708A0.388 0.388 0 0 1 3.108 3.32z"/><path id="_409687992" d="m6.759 3.358h-0.386v-0.496c0 -0.252 -0.206 -0.459 -0.458 -0.459h-0.992c-0.252 0 -0.458 0.206 -0.458 0.459v0.496h-0.386v-0.496c0 -0.465 0.379 -0.845 0.845 -0.845h0.992c0.465 0 0.845 0.379 0.845 0.845z"/></g></g></svg>