<svg clip-rule="evenodd" fill-rule="evenodd" height="32" stroke-linejoin="round" stroke-miterlimit="2" viewBox="0 0 16.688 16.688" width="32" xmlns="http://www.w3.org/2000/svg"><g><path d="m3.125 9.636c3.559 0.617 7.118 0.597 10.677 0v-4.948c0 -0.057 -0.018 -0.111 -0.052 -0.156l-2.344 -3.125c-0.049 -0.066 -0.126 -0.104 -0.208 -0.104h-7.292c-0.207 0 -0.406 0.082 -0.552 0.229 -0.146 0.147 -0.229 0.345 -0.229 0.552v5.99c0 0.387 -0.091 0.715 -0.091 0.976 0 0.361 0.091 0.587 0.091 0.587z" fill="#d8dfe3"/><path d="m1.563 8.96v5.623c0 0.207 0.082 0.406 0.229 0.552s0.345 0.229 0.552 0.229h11.979c0.207 0 0.406 -0.082 0.552 -0.229 0.146 -0.146 0.229 -0.345 0.229 -0.552 0 -0.998 0 -3.169 0 -4.167 0 -0.207 -0.082 -0.406 -0.229 -0.552 -0.147 -0.146 -0.345 -0.229 -0.552 -0.229h-11.719c-0.332 0 -1.042 -0.675 -1.042 -0.675z" fill="#1fb35b"/><path d="m2.344 9.636c-0.238 0 -0.411 -0.097 -0.539 -0.215 -0.12 -0.112 -0.242 -0.309 -0.242 -0.566 0 -0.165 0.082 -0.406 0.229 -0.552s0.345 -0.229 0.552 -0.229h0.781v1.563s0.067 0 -0.781 0z" fill="#198043"/><path d="m8.073 8.594v-2.344h-3.385v2.083c0 0.144 0.117 0.261 0.261 0.261z" fill="#1fb35b"/><path d="m8.073 3.385h-3.125c-0.144 0 -0.261 0.117 -0.261 0.261v2.083h3.385z" fill="#1fb35b"/><path d="m11.979 6.25h-3.385v2.344h3.125c0.144 0 0.261 -0.117 0.261 -0.261z" fill="#1fb35b"/><path d="m11.198 3.385h-2.604v2.344h3.385v-1.042c0 -0.144 -0.117 -0.261 -0.261 -0.261s-0.261 -0.637 -0.261 -0.781c0 -0.144 -0.117 -0.261 -0.261 -0.261z" fill="#1fb35b"/><g fill="#d8dfe3"><path d="m6.087 11.198v2.604c0 0.144 0.117 0.261 0.261 0.261h1.628c0.144 0 0.261 -0.117 0.261 -0.261 0 -0.144 -0.117 -0.261 -0.261 -0.261h-1.367v-2.344c0 -0.144 -0.117 -0.261 -0.261 -0.261 -0.144 0 -0.261 0.117 -0.261 0.261z"/><path d="m11.296 13.973 2.279 -2.604c0.095 -0.108 0.084 -0.273 -0.025 -0.367 -0.108 -0.095 -0.273 -0.084 -0.367 0.025l-2.279 2.604c-0.095 0.108 -0.084 0.273 0.025 0.367 0.108 0.095 0.273 0.084 0.367 -0.025z"/><path d="m3.484 13.973 2.279 -2.604c0.095 -0.108 0.084 -0.273 -0.025 -0.367 -0.108 -0.095 -0.273 -0.084 -0.367 0.025l-2.279 2.604c-0.095 0.108 -0.084 0.273 0.025 0.367 0.108 0.095 0.273 0.084 0.367 -0.025z"/><path d="m13.575 13.631 -2.279 -2.604c-0.095 -0.108 -0.26 -0.119 -0.367 -0.025 -0.108 0.095 -0.119 0.26 -0.025 0.367l2.279 2.604c0.095 0.108 0.26 0.119 0.367 0.025 0.108 -0.095 0.119 -0.26 0.025 -0.367z"/><path d="m5.762 13.631 -2.279 -2.604c-0.095 -0.108 -0.26 -0.119 -0.367 -0.025 -0.108 0.095 -0.119 0.26 -0.025 0.367l2.279 2.604c0.095 0.108 0.26 0.119 0.367 0.025 0.108 -0.095 0.119 -0.26 0.025 -0.367z"/><path d="m8.366 13.153 0 0v0.129c0 0.207 0.082 0.406 0.229 0.552 0.146 0.146 0.345 0.229 0.552 0.229h0.587c0.207 0 0.406 -0.082 0.552 -0.229 0.146 -0.146 0.229 -0.345 0.229 -0.552 0 -0.035 0 -0.07 0 -0.103 0 -0.32 -0.195 -0.607 -0.491 -0.725l-0.947 -0.379c-0.115 -0.046 -0.19 -0.157 -0.19 -0.28v-0.075c0 -0.069 0.028 -0.135 0.076 -0.184 0.049 -0.049 0.115 -0.076 0.184 -0.076h0.586c0.069 0 0.135 0.028 0.184 0.076 0.049 0.049 0.076 0.115 0.076 0.184v0.129c0 0.073 0.033 0.14 0.065 0.174 0.051 0.058 0.124 0.088 0.195 0.088 0.127 0 0.261 -0.098 0.261 -0.262v-0.129c0 -0.207 -0.082 -0.406 -0.229 -0.552s-0.345 -0.229 -0.552 -0.229h-0.586c-0.207 0 -0.406 0.082 -0.552 0.229s-0.229 0.345 -0.229 0.552v0.075c0 0.336 0.205 0.638 0.517 0.763l0.947 0.379c0.099 0.04 0.164 0.135 0.164 0.242v0.103c0 0.069 -0.028 0.135 -0.076 0.184s-0.115 0.076 -0.184 0.076h-0.587c-0.069 0 -0.135 -0.028 -0.184 -0.076 -0.049 -0.049 -0.076 -0.115 -0.076 -0.184 0 0 0 0 0 -0.129 0 -0.172 -0.14 -0.262 -0.256 -0.262 -0.11 0 -0.265 0.085 -0.265 0.261 0 0.002 0 0.002 0 0.002z"/></g><path d="m11.198 1.302v2.604c0 0.207 0.082 0.406 0.229 0.552s0.345 0.229 0.552 0.229h1.823c0 -0.057 -0.018 -0.111 -0.052 -0.156l-2.344 -3.125c-0.049 -0.066 -0.126 -0.104 -0.208 -0.104z" fill="#afbdc7"/></g></svg>