<svg width="32" height="32" viewBox="0 0 32 32" fill="none" xmlns="http://www.w3.org/2000/svg">
<g clip-path="url(#clip0_177_4580)">
<path fill-rule="evenodd" clip-rule="evenodd" d="M8.20697 0.5H27.366C27.5382 0.5 27.6863 0.561375 27.808 0.683062L31.3171 4.19212C31.4388 4.31381 31.5002 4.46194 31.5002 4.63406V30.875C31.5002 31.2192 31.2194 31.5 30.8752 31.5H8.20703C7.86278 31.5 7.58203 31.2192 7.58203 30.875V1.125C7.58197 0.78075 7.86272 0.5 8.20697 0.5Z" fill="#ECEFF1"/>
<path fill-rule="evenodd" clip-rule="evenodd" d="M19.541 0.5H27.366C27.5381 0.5 27.6863 0.561375 27.808 0.683062L31.3171 4.19212C31.4388 4.31381 31.5001 4.46194 31.5001 4.63406V30.875C31.5001 31.2192 31.2194 31.5 30.8751 31.5H19.541V0.5Z" fill="#D1D1D6"/>
<path fill-rule="evenodd" clip-rule="evenodd" d="M27.625 0.554688C27.6914 0.585 27.7525 0.628 27.8081 0.683563L31.3172 4.19262C31.3728 4.24819 31.4158 4.30931 31.4461 4.37569H27.9375C27.7654 4.37569 27.625 4.23531 27.625 4.06319V0.554688Z" fill="#A79BA7"/>
<path fill-rule="evenodd" clip-rule="evenodd" d="M1.125 12.3405H11.1229V9.6846C11.1229 9.55935 11.1918 9.45216 11.3057 9.40022C11.4197 9.34829 11.5458 9.3666 11.6404 9.44879L19.3069 16.1147C19.3776 16.1762 19.4143 16.2568 19.4143 16.3505C19.4143 16.4442 19.3776 16.5248 19.3069 16.5863L11.6404 23.2521C11.5458 23.3343 11.4197 23.3525 11.3057 23.3007C11.1917 23.2487 11.1229 23.1415 11.1229 23.0163V20.3604H1.125C0.78075 20.3604 0.5 20.0797 0.5 19.7354V12.9654C0.5 12.6212 0.78075 12.3405 1.125 12.3405Z" fill="#6CF5C2"/>
<path fill-rule="evenodd" clip-rule="evenodd" d="M19.4143 16.3516C19.4143 16.4453 19.3776 16.5259 19.3069 16.5874L11.6404 23.2533C11.5458 23.3354 11.4197 23.3537 11.3057 23.3018C11.1917 23.2499 11.1229 23.1427 11.1229 23.0174V20.3616H1.125C0.78075 20.3616 0.5 20.0808 0.5 19.7366V16.3516H19.4143V16.3516Z" fill="#00E499"/>
<path fill-rule="evenodd" clip-rule="evenodd" d="M22.625 6.42119H12.4631C12.1866 6.42119 11.9628 6.19744 11.9628 5.92119C11.9628 5.64581 12.1866 5.4215 12.4631 5.4215H22.6249C22.9012 5.4215 23.1249 5.64587 23.1249 5.92119C23.125 6.19744 22.9012 6.42119 22.625 6.42119ZM27.1192 26.7805C27.1192 27.0571 26.8948 27.2808 26.6192 27.2808H12.4631C12.1866 27.2808 11.9628 27.0571 11.9628 26.7805C11.9628 26.5051 12.1866 26.2805 12.4631 26.2805H26.6192C26.8948 26.2805 27.1192 26.5051 27.1192 26.7805ZM27.1192 22.6088C27.1192 22.8851 26.8948 23.1088 26.6192 23.1088H15.3686C15.0923 23.1088 14.8686 22.885 14.8686 22.6088C14.8686 22.3332 15.0923 22.1088 15.3686 22.1088H26.6192C26.8948 22.1088 27.1192 22.3332 27.1192 22.6088ZM27.1192 14.2649C27.1192 14.5414 26.8948 14.7652 26.6192 14.7652H20.5718C20.2956 14.7652 20.0718 14.5414 20.0718 14.2649C20.0718 13.9895 20.2956 13.7651 20.5718 13.7651H26.6192C26.8948 13.7651 27.1192 13.9895 27.1192 14.2649ZM27.1192 18.4368C27.1192 18.7131 26.8948 18.9368 26.6192 18.9368H20.5718C20.2956 18.9368 20.0718 18.7131 20.0718 18.4368C20.0718 18.1614 20.2956 17.9368 20.5718 17.9368H26.6192C26.8948 17.9368 27.1192 18.1615 27.1192 18.4368ZM27.1192 10.0932C27.1192 10.3694 26.8948 10.5932 26.6192 10.5932H15.3686C15.0923 10.5932 14.8686 10.3694 14.8686 10.0932C14.8686 9.8175 15.0923 9.59319 15.3686 9.59319H26.6192C26.8948 9.59312 27.1192 9.8175 27.1192 10.0932ZM8.08181 31H30.9999V4.87481H27.6248C27.3486 4.87481 27.1248 4.65137 27.1248 4.37512V1.00006H8.08181V11.8412H10.6231V8.99944C10.6231 8.804 10.7372 8.62562 10.9156 8.5445C11.0937 8.46312 11.303 8.49381 11.4504 8.62262L19.9061 15.9739C20.0155 16.0689 20.078 16.2063 20.078 16.3513C20.078 16.4958 20.0155 16.6338 19.9061 16.729L11.4504 24.08C11.3579 24.1608 11.2411 24.2032 11.1223 24.2032C11.0524 24.2032 10.9817 24.1882 10.9156 24.1581C10.7372 24.0771 10.6231 23.8987 10.6231 23.7032V20.8611H8.08181V31ZM1 12.8412V19.8614H11.1229C11.3986 19.8614 11.6229 20.0852 11.6229 20.3614V22.6056L18.8162 16.3513L11.6229 10.097V12.3412C11.6229 12.6177 11.3986 12.8412 11.1229 12.8412H1ZM28.1248 1.707L30.2929 3.87512H28.1248V1.707ZM31.8537 4.02194L27.978 0.14625C27.8842 0.0525 27.7572 0 27.6248 0H7.58181C7.30556 0 7.08181 0.22375 7.08181 0.5V11.8411H0.5C0.22375 11.8411 0 12.0649 0 12.3411V20.3614C0 20.6376 0.22375 20.8611 0.5 20.8611H7.08181V31.4999C7.08181 31.7762 7.30556 31.9999 7.58181 31.9999H31.4999C31.7762 31.9999 31.9999 31.7762 31.9999 31.4999V4.37512C31.9999 4.24244 31.9474 4.11569 31.8537 4.02194Z" fill="black"/>
</g>
<defs>
<clipPath id="clip0_177_4580">
<rect width="32" height="32" fill="white"/>
</clipPath>
</defs>
</svg>
