<svg id="Capa_1" enable-background="new 0 0 387.652 387.652" height="32" viewBox="0 0 24.228 24.228" width="32" xmlns="http://www.w3.org/2000/svg"><g><g><path d="m8.056 13.878h1.199c4.084 0 7.395 3.311 7.395 7.396v2.954h-15.99v-2.954c0 -4.084 3.311 -7.396 7.396 -7.396z" fill="#005086"/><path d="m13.904 8.647c0.002 0.637 -0.114 1.268 -0.341 1.863 -1.025 2.698 -4.043 4.054 -6.741 3.029s-4.054 -4.043 -3.029 -6.741c1.025 -2.698 4.043 -4.054 6.741 -3.029 2.026 0.77 3.367 2.711 3.369 4.879z" fill="#f7d6bf"/><path d="m23.454 9.595 -0.589 1.014c-0.233 0.401 -0.746 0.538 -1.148 0.308l-0.903 -0.52c-0.591 0.561 -1.308 0.972 -2.09 1.199v1.026c-0.001 0.465 -0.378 0.843 -0.843 0.843h-1.187c-0.465 -0.001 -0.843 -0.378 -0.843 -0.843v-1.026c-0.783 -0.227 -1.499 -0.638 -2.09 -1.199l-0.197 0.114c0.947 -2.491 -0.133 -5.296 -2.506 -6.509 0.017 -0.046 0.038 -0.091 0.063 -0.135l0.586 -1.011c0.233 -0.4 0.746 -0.538 1.148 -0.308l0.906 0.517c0.591 -0.56 1.308 -0.971 2.09 -1.199v-1.023c-0.001 -0.465 0.376 -0.843 0.841 -0.843h0.002c0.465 -0.001 0.843 0.376 0.843 0.841v0.002c0.782 0.229 1.498 0.639 2.09 1.199l0.903 -0.517c0.402 -0.23 0.915 -0.093 1.148 0.308l0.589 1.011c0.234 0.401 0.099 0.915 -0.302 1.149 -0.003 0.002 -0.006 0.003 -0.009 0.005l-0.894 0.514c0.199 0.786 0.199 1.609 0 2.395l0.894 0.511c0.404 0.23 0.545 0.743 0.315 1.146 -0.002 0.003 -0.003 0.005 -0.004 0.008z" fill="#318fb5"/><path cx="276.588" cy="107.693" fill="#fff" rx="38.701" ry="38.395" d="M19.706 6.731A2.419 2.4 0 0 1 17.287 9.13A2.419 2.4 0 0 1 14.868 6.731A2.419 2.4 0 0 1 19.706 6.731z"/></g></g></svg>