<svg version="1.1" id="Capa_1" xmlns="http://www.w3.org/2000/svg" xmlns:xlink="http://www.w3.org/1999/xlink" x="0px" y="0px" width="32px" height="32px" viewBox="0 0 32 32" style="enable-background:new 0 0 276.167 276.167;" xml:space="preserve"><g><g><path d="M3.84 0.286C1.777 0.286 0.098 1.965 0.098 4.028s1.678 3.742 3.742 3.742s3.742 -1.679 3.742 -3.742S5.904 0.286 3.84 0.286z"/><path d="M15.951 0.286c-2.063 0 -3.742 1.679 -3.742 3.742s1.679 3.742 3.742 3.742c2.063 0 3.742 -1.679 3.742 -3.742S18.015 0.286 15.951 0.286z"/><path d="M28.258 7.77c2.063 0 3.742 -1.679 3.742 -3.742S30.322 0.286 28.258 0.286s-3.742 1.679 -3.742 3.742S26.195 7.77 28.258 7.77z"/><path d="M3.743 19.761c2.063 0 3.742 -1.678 3.742 -3.742c0 -2.064 -1.679 -3.742 -3.742 -3.742S0 13.955 0 16.019C0 18.083 1.679 19.761 3.743 19.761z"/><path d="M15.853 19.761c2.063 0 3.742 -1.678 3.742 -3.742c0 -2.064 -1.678 -3.742 -3.742 -3.742c-2.064 0 -3.742 1.679 -3.742 3.742C12.112 18.083 13.79 19.761 15.853 19.761z"/><path d="M28.161 19.761c2.064 0 3.742 -1.678 3.742 -3.742c0 -2.064 -1.678 -3.742 -3.742 -3.742s-3.743 1.679 -3.743 3.742C24.418 18.083 26.097 19.761 28.161 19.761z"/><path d="M3.828 24.23c-2.063 0 -3.743 1.678 -3.743 3.742c0 2.063 1.679 3.742 3.743 3.742s3.742 -1.678 3.742 -3.742S5.892 24.23 3.828 24.23z"/><path d="M15.94 24.23c-2.063 0 -3.743 1.678 -3.743 3.742c0 2.063 1.679 3.742 3.743 3.742c2.063 0 3.742 -1.678 3.742 -3.742S18.003 24.23 15.94 24.23z"/><path d="M28.246 24.23c-2.063 0 -3.742 1.678 -3.742 3.742c0 2.063 1.679 3.742 3.742 3.742c2.064 0 3.742 -1.678 3.742 -3.742S30.309 24.23 28.246 24.23z"/></g></g><g/><g/><g/><g/><g/><g/><g/><g/><g/><g/><g/><g/><g/><g/><g/></svg>