<svg width="32" height="32" viewBox="0 0 32 32" fill="none" xmlns="http://www.w3.org/2000/svg">
<g clip-path="url(#clip0_962_37119)">
<path d="M30.3861 2.67067C31.4756 3.7596 31.4756 5.52561 30.3861 6.61454L28.9771 8.02348L24.0975 3.14385L25.5064 1.7349C26.596 0.645659 28.362 0.645659 29.4512 1.7349L30.3861 2.67067Z" fill="#00ACEA"/>
<path d="M28.9771 8.02344L16.2144 20.7871H16.2135L11.3338 15.9074L24.0975 3.1438L28.9771 8.02344Z" fill="#00EFD1"/>
<path d="M11.3338 15.9075L16.2135 20.7871L16.168 20.8326L9.41904 22.7022L11.2884 15.9529L11.3338 15.9075Z" fill="#FEDB41"/>
<path d="M29.5334 20.1012C29.0932 20.1012 28.7365 20.4579 28.7365 20.8981V27.974C28.7349 29.2939 27.6656 30.3632 26.3457 30.3648H3.98465C2.66473 30.3632 1.59542 29.2939 1.59386 27.974V7.20682C1.59542 5.88721 2.66473 4.81758 3.98465 4.81603H11.0605C11.5007 4.81603 11.8574 4.45928 11.8574 4.0191C11.8574 3.57892 11.5007 3.22217 11.0605 3.22217H3.98465C1.785 3.22466 0.0024904 5.00717 0 7.20682V27.974C0.0024904 30.1736 1.785 31.9561 3.98465 31.9586H26.3457C28.5453 31.9561 30.3278 30.1736 30.3303 27.974V20.8981C30.3303 20.4579 29.9736 20.1012 29.5334 20.1012Z" fill="#083863"/>
<path d="M30.015 1.17157C28.6132 -0.226788 26.3444 -0.226788 24.9429 1.17157L10.7249 15.3896C10.6278 15.487 10.5571 15.6078 10.5204 15.7401L8.65103 22.4894C8.57414 22.7662 8.65227 23.0625 8.85524 23.2658C9.05852 23.4688 9.35488 23.5469 9.63163 23.4703L16.3809 21.6007C16.5135 21.5639 16.6346 21.4933 16.7321 21.3958L16.7772 21.3504L30.9495 7.17812C32.35 5.77789 32.35 3.50757 30.9495 2.10734L30.015 1.17157ZM11.7114 17.4121L14.7089 20.41L10.5624 21.5587L11.7114 17.4121ZM16.2141 20.7876V20.7869L16.7336 21.3065L16.2141 20.7876ZM16.2141 19.6607L12.461 15.9076L24.0975 4.27119L27.8502 8.02361L16.2141 19.6607ZM29.8226 6.05121L28.9771 6.8967L25.2247 3.14398L26.0702 2.29848C26.8484 1.52179 28.1089 1.52179 28.8874 2.29848L29.8226 3.23456C30.6008 4.01219 30.6008 5.27358 29.8226 6.05121Z" fill="#083863"/>
</g>
<defs>
<clipPath id="clip0_962_37119">
<rect width="32" height="32" fill="white"/>
</clipPath>
</defs>
</svg>
